<?xml version="1.0" encoding="UTF-8" standalone="no"?>
<!DOCTYPE svg PUBLIC "-//W3C//DTD SVG 1.1//EN"
 "http://www.w3.org/Graphics/SVG/1.1/DTD/svg11.dtd">
<!-- Generated by graphviz version 2.26.3 (20100126.1600)
 -->
<!-- Title: G Pages: 1 -->
<svg width="536pt" height="498pt"
 viewBox="0.00 0.00 536.00 498.00" xmlns="http://www.w3.org/2000/svg" xmlns:xlink="http://www.w3.org/1999/xlink">
<g id="graph1" class="graph" transform="scale(1 1) rotate(0) translate(4 494)">
<title>G</title>
<polygon fill="white" stroke="white" points="-4,5 -4,-494 533,-494 533,5 -4,5"/>
<g id="graph2" class="cluster"><title>cluster_Global</title>
<polyline fill="none" stroke="gray" points="388,-8 508,-8 "/>
<path fill="none" stroke="gray" d="M508,-8C514,-8 520,-14 520,-20"/>
<polyline fill="none" stroke="gray" points="520,-20 520,-470 "/>
<path fill="none" stroke="gray" d="M520,-470C520,-476 514,-482 508,-482"/>
<polyline fill="none" stroke="gray" points="508,-482 388,-482 "/>
<path fill="none" stroke="gray" d="M388,-482C382,-482 376,-476 376,-470"/>
<polyline fill="none" stroke="gray" points="376,-470 376,-20 "/>
<path fill="none" stroke="gray" d="M376,-20C376,-14 382,-8 388,-8"/>
<text text-anchor="middle" x="448" y="-468.1" font-family="Times Roman,serif" font-size="11.00" fill="gray">\</text>
</g>
<g id="graph3" class="cluster"><title>cluster_\ProfitPress</title>
<polyline fill="none" stroke="gray" points="396,-16 500,-16 "/>
<path fill="none" stroke="gray" d="M500,-16C506,-16 512,-22 512,-28"/>
<polyline fill="none" stroke="gray" points="512,-28 512,-440 "/>
<path fill="none" stroke="gray" d="M512,-440C512,-446 506,-452 500,-452"/>
<polyline fill="none" stroke="gray" points="500,-452 396,-452 "/>
<path fill="none" stroke="gray" d="M396,-452C390,-452 384,-446 384,-440"/>
<polyline fill="none" stroke="gray" points="384,-440 384,-28 "/>
<path fill="none" stroke="gray" d="M384,-28C384,-22 390,-16 396,-16"/>
<text text-anchor="middle" x="448" y="-438.1" font-family="Times Roman,serif" font-size="11.00" fill="gray">ProfitPress</text>
</g>
<g id="graph4" class="cluster"><title>cluster_\ProfitPress\Services</title>
<polyline fill="none" stroke="gray" points="404,-24 492,-24 "/>
<path fill="none" stroke="gray" d="M492,-24C498,-24 504,-30 504,-36"/>
<polyline fill="none" stroke="gray" points="504,-36 504,-410 "/>
<path fill="none" stroke="gray" d="M504,-410C504,-416 498,-422 492,-422"/>
<polyline fill="none" stroke="gray" points="492,-422 404,-422 "/>
<path fill="none" stroke="gray" d="M404,-422C398,-422 392,-416 392,-410"/>
<polyline fill="none" stroke="gray" points="392,-410 392,-36 "/>
<path fill="none" stroke="gray" d="M392,-36C392,-30 398,-24 404,-24"/>
<text text-anchor="middle" x="448" y="-408.1" font-family="Times Roman,serif" font-size="11.00" fill="gray">Services</text>
</g>
<!-- \\ProfitPress\\Services\\Hostname -->
<g id="node4" class="node"><title>\\ProfitPress\\Services\\Hostname</title>
<polygon fill="none" stroke="black" points="485,-392 411,-392 411,-356 485,-356 485,-392"/>
<text text-anchor="middle" x="448" y="-371.1" font-family="Times Roman,serif" font-size="11.00">Hostname</text>
</g>
<!-- \\ProfitPress\\Services\\Router -->
<g id="node5" class="node"><title>\\ProfitPress\\Services\\Router</title>
<polygon fill="none" stroke="black" points="475,-338 421,-338 421,-302 475,-302 475,-338"/>
<text text-anchor="middle" x="448" y="-317.1" font-family="Times Roman,serif" font-size="11.00">Router</text>
</g>
<!-- \\Phalcon\\Mvc\\Router -->
<g id="node12" class="node"><title>\\Phalcon\\Mvc\\Router</title>
<ellipse fill="none" stroke="black" cx="164" cy="-320" rx="111.222" ry="18.3848"/>
<text text-anchor="middle" x="164" y="-316.4" font-family="Times Roman,serif" font-size="14.00" fill="gray">\Phalcon\Mvc\Router</text>
</g>
<!-- \\ProfitPress\\Services\\Router&#45;&gt;\\Phalcon\\Mvc\\Router -->
<g id="edge5" class="edge"><title>\\ProfitPress\\Services\\Router&#45;&gt;\\Phalcon\\Mvc\\Router</title>
<path fill="none" stroke="black" d="M420.769,-320C389.466,-320 335.94,-320 285.833,-320"/>
<polygon fill="none" stroke="black" points="285.534,-316.5 275.534,-320 285.534,-323.5 285.534,-316.5"/>
</g>
<!-- \\ProfitPress\\Services\\Database -->
<g id="node6" class="node"><title>\\ProfitPress\\Services\\Database</title>
<polygon fill="none" stroke="black" points="482,-284 414,-284 414,-248 482,-248 482,-284"/>
<text text-anchor="middle" x="448" y="-263.1" font-family="Times Roman,serif" font-size="11.00">Database</text>
</g>
<!-- \\Phalcon\\Db\\Adapter\\Pdo\\Mysql -->
<g id="node14" class="node"><title>\\Phalcon\\Db\\Adapter\\Pdo\\Mysql</title>
<ellipse fill="none" stroke="black" cx="164" cy="-266" rx="164.049" ry="18.3848"/>
<text text-anchor="middle" x="164" y="-262.4" font-family="Times Roman,serif" font-size="14.00" fill="gray">\Phalcon\Db\Adapter\Pdo\Mysql</text>
</g>
<!-- \\ProfitPress\\Services\\Database&#45;&gt;\\Phalcon\\Db\\Adapter\\Pdo\\Mysql -->
<g id="edge7" class="edge"><title>\\ProfitPress\\Services\\Database&#45;&gt;\\Phalcon\\Db\\Adapter\\Pdo\\Mysql</title>
<path fill="none" stroke="black" d="M413.46,-266C393.559,-266 366.876,-266 338.354,-266"/>
<polygon fill="none" stroke="black" points="338.196,-262.5 328.196,-266 338.196,-269.5 338.196,-262.5"/>
</g>
<!-- \\ProfitPress\\Services\\Cache -->
<g id="node7" class="node"><title>\\ProfitPress\\Services\\Cache</title>
<polygon fill="none" stroke="black" points="475,-230 421,-230 421,-194 475,-194 475,-230"/>
<text text-anchor="middle" x="448" y="-209.1" font-family="Times Roman,serif" font-size="11.00">Cache</text>
</g>
<!-- \\Phalcon\\Mvc\\User\\Component -->
<g id="node16" class="node"><title>\\Phalcon\\Mvc\\User\\Component</title>
<ellipse fill="none" stroke="black" cx="164" cy="-104" rx="160.013" ry="18.3848"/>
<text text-anchor="middle" x="164" y="-100.4" font-family="Times Roman,serif" font-size="14.00" fill="gray">\Phalcon\Mvc\User\Component</text>
</g>
<!-- \\ProfitPress\\Services\\Cache&#45;&gt;\\Phalcon\\Mvc\\User\\Component -->
<g id="edge9" class="edge"><title>\\ProfitPress\\Services\\Cache&#45;&gt;\\Phalcon\\Mvc\\User\\Component</title>
<path fill="none" stroke="black" d="M420.975,-201.911C407.46,-196.854 390.858,-190.624 376,-185 322.386,-164.705 261.235,-141.315 218.433,-124.904"/>
<polygon fill="none" stroke="black" points="219.638,-121.617 209.047,-121.304 217.131,-128.153 219.638,-121.617"/>
</g>
<!-- \\ProfitPress\\Services\\Config -->
<g id="node8" class="node"><title>\\ProfitPress\\Services\\Config</title>
<polygon fill="none" stroke="black" points="475,-176 421,-176 421,-140 475,-140 475,-176"/>
<text text-anchor="middle" x="448" y="-155.1" font-family="Times Roman,serif" font-size="11.00">Config</text>
</g>
<!-- \\ProfitPress\\Services\\PiwikDatabase -->
<g id="node9" class="node"><title>\\ProfitPress\\Services\\PiwikDatabase</title>
<polygon fill="none" stroke="black" points="496,-122 400,-122 400,-86 496,-86 496,-122"/>
<text text-anchor="middle" x="448" y="-101.1" font-family="Times Roman,serif" font-size="11.00">PiwikDatabase</text>
</g>
<!-- \\ProfitPress\\Services\\PiwikDatabase&#45;&gt;\\Phalcon\\Mvc\\User\\Component -->
<g id="edge11" class="edge"><title>\\ProfitPress\\Services\\PiwikDatabase&#45;&gt;\\Phalcon\\Mvc\\User\\Component</title>
<path fill="none" stroke="black" d="M399.823,-104C381.129,-104 358.509,-104 334.769,-104"/>
<polygon fill="none" stroke="black" points="334.534,-100.5 324.534,-104 334.534,-107.5 334.534,-100.5"/>
</g>
<!-- \\ProfitPress\\Services\\Acl -->
<g id="node10" class="node"><title>\\ProfitPress\\Services\\Acl</title>
<polygon fill="none" stroke="black" points="475,-68 421,-68 421,-32 475,-32 475,-68"/>
<text text-anchor="middle" x="448" y="-47.1" font-family="Times Roman,serif" font-size="11.00">Acl</text>
</g>
<!-- \\ProfitPress\\Services\\Acl&#45;&gt;\\Phalcon\\Mvc\\User\\Component -->
<g id="edge13" class="edge"><title>\\ProfitPress\\Services\\Acl&#45;&gt;\\Phalcon\\Mvc\\User\\Component</title>
<path fill="none" stroke="black" d="M420.769,-55.1777C383.037,-62.3521 313.014,-75.6663 255.613,-86.5807"/>
<polygon fill="none" stroke="black" points="254.956,-83.1427 245.786,-88.4492 256.264,-90.0195 254.956,-83.1427"/>
</g>
</g>
</svg>
